<svg width="37" height="36" viewBox="0 0 37 36" fill="none" xmlns="http://www.w3.org/2000/svg">
<path d="M30.2165 27H27.2165V13.875L18.2166 19.5L9.21655 13.875V27H6.21655V9H8.01655L18.2166 15.375L28.4165 9H30.2165M30.2165 6H6.21655C4.55155 6 3.21655 7.335 3.21655 9V27C3.21655 27.7956 3.53262 28.5587 4.09523 29.1213C4.65784 29.6839 5.4209 30 6.21655 30H30.2165C31.0122 30 31.7753 29.6839 32.3379 29.1213C32.9005 28.5587 33.2165 27.7956 33.2165 27V9C33.2165 8.20435 32.9005 7.44129 32.3379 6.87868C31.7753 6.31607 31.0122 6 30.2165 6Z" fill="#606C5D"/>
</svg>
