<svg width="37" height="36" viewBox="0 0 37 36" fill="none" xmlns="http://www.w3.org/2000/svg">
<path d="M11.9163 3.00006H24.5163C29.3163 3.00006 33.2163 6.90006 33.2163 11.7001V24.3001C33.2163 26.6074 32.2997 28.8203 30.6681 30.4519C29.0366 32.0835 26.8237 33.0001 24.5163 33.0001H11.9163C7.11631 33.0001 3.21631 29.1001 3.21631 24.3001V11.7001C3.21631 9.39268 4.13291 7.1798 5.76448 5.54823C7.39605 3.91667 9.60892 3.00006 11.9163 3.00006ZM11.6163 6.00006C10.1841 6.00006 8.81063 6.56899 7.79793 7.58168C6.78524 8.59438 6.21631 9.96789 6.21631 11.4001V24.6001C6.21631 27.5851 8.63131 30.0001 11.6163 30.0001H24.8163C26.2485 30.0001 27.622 29.4311 28.6347 28.4184C29.6474 27.4057 30.2163 26.0322 30.2163 24.6001V11.4001C30.2163 8.41506 27.8013 6.00006 24.8163 6.00006H11.6163ZM26.0913 8.25006C26.5886 8.25006 27.0655 8.4476 27.4171 8.79923C27.7688 9.15087 27.9663 9.62778 27.9663 10.1251C27.9663 10.6223 27.7688 11.0993 27.4171 11.4509C27.0655 11.8025 26.5886 12.0001 26.0913 12.0001C25.594 12.0001 25.1171 11.8025 24.7655 11.4509C24.4138 11.0993 24.2163 10.6223 24.2163 10.1251C24.2163 9.62778 24.4138 9.15087 24.7655 8.79923C25.1171 8.4476 25.594 8.25006 26.0913 8.25006ZM18.2163 10.5001C20.2054 10.5001 22.1131 11.2902 23.5196 12.6968C24.9261 14.1033 25.7163 16.0109 25.7163 18.0001C25.7163 19.9892 24.9261 21.8968 23.5196 23.3034C22.1131 24.7099 20.2054 25.5001 18.2163 25.5001C16.2272 25.5001 14.3195 24.7099 12.913 23.3034C11.5065 21.8968 10.7163 19.9892 10.7163 18.0001C10.7163 16.0109 11.5065 14.1033 12.913 12.6968C14.3195 11.2902 16.2272 10.5001 18.2163 10.5001ZM18.2163 13.5001C17.0228 13.5001 15.8782 13.9742 15.0343 14.8181C14.1904 15.662 13.7163 16.8066 13.7163 18.0001C13.7163 19.1935 14.1904 20.3381 15.0343 21.182C15.8782 22.026 17.0228 22.5001 18.2163 22.5001C19.4098 22.5001 20.5544 22.026 21.3983 21.182C22.2422 20.3381 22.7163 19.1935 22.7163 18.0001C22.7163 16.8066 22.2422 15.662 21.3983 14.8181C20.5544 13.9742 19.4098 13.5001 18.2163 13.5001Z" fill="#606C5D"/>
</svg>
