<svg width="71" height="33" viewBox="0 0 71 33" fill="none" xmlns="http://www.w3.org/2000/svg">
<path fill-rule="evenodd" clip-rule="evenodd" d="M47.0551 3.04051C47.5318 3.50084 47.8303 3.98661 47.9423 4.48113C51.8608 4.74718 55.5541 6.10241 58.3565 8.32783C61.497 10.8218 63.2613 14.2043 63.2613 17.7313H60.5096C60.5096 14.7839 59.0352 11.9572 56.4107 9.87301C53.7862 7.78886 50.2267 6.618 46.5151 6.618C42.9565 6.618 39.8875 7.42197 37.3274 9.32514C37.5523 9.54405 37.7679 9.76813 37.974 9.99701C40.3948 8.63293 43.4007 7.88042 46.5152 7.88042C50.1728 7.88042 53.6806 8.91826 56.2669 10.7656C58.8532 12.613 60.3062 15.1186 60.3062 17.7312H58.0401C58.0401 15.5479 56.8258 13.454 54.6645 11.9102C52.5032 10.3664 49.5718 9.4991 46.5152 9.4991C43.7914 9.4991 41.167 10.1878 39.0983 11.4303C39.2634 11.6739 39.4187 11.9214 39.5642 12.1725C41.5633 10.9961 44.1136 10.3432 46.7617 10.3432C49.7008 10.3432 52.5196 11.1476 54.5979 12.5793C56.6762 14.011 57.8438 15.9528 57.8438 17.9776H56.0227C56.0227 16.2855 55.047 14.6628 53.3102 13.4663C51.5734 12.2699 49.2178 11.5977 46.7617 11.5977C44.3055 11.5977 41.9499 12.2699 40.2131 13.4663L40.2128 13.4665C40.28 13.6241 40.3435 13.7827 40.4033 13.9423C42.0494 12.8978 44.2371 12.3133 46.5151 12.3133C48.8664 12.3133 51.1214 12.936 52.7841 14.0445C54.3595 15.0947 55.2808 16.4996 55.3731 17.9776H70.6492C70.6492 19.9675 69.7225 21.9375 67.9228 23.7733C66.1231 25.6091 63.4863 27.2741 60.1656 28.6716C56.8449 30.0691 52.9064 31.1713 48.5788 31.9141C44.2512 32.6569 39.6208 33.0255 34.9565 32.9986C30.2922 32.9717 25.6868 32.5498 21.4079 31.7573C17.1291 30.9649 13.2619 29.8177 10.031 28.3824C6.80009 26.9471 4.26986 25.2523 2.58723 23.3963C0.904601 21.5404 0.103101 19.5604 0.229274 17.5713L7.60506 17.6564C7.62983 14.1565 9.39135 10.8041 12.5097 8.3278C15.4306 6.00825 19.3194 4.63406 23.4223 4.45321C23.539 3.96833 23.8352 3.49217 24.3029 3.04051C24.9217 2.44294 25.8287 1.89997 26.9721 1.44261C28.1155 0.985245 29.4729 0.622445 30.9669 0.374922C32.4608 0.127399 34.062 0 35.679 0C37.296 0 38.8972 0.127398 40.3912 0.374922C41.8851 0.622445 43.2425 0.985245 44.3859 1.44261C45.5293 1.89997 46.4363 2.44294 47.0551 3.04051ZM10.3567 17.6882L10.56 17.6905C10.575 15.0926 12.0263 12.6034 14.5992 10.7656C17.1856 8.91826 20.6934 7.88042 24.351 7.88042C28.0086 7.88042 31.5164 8.91826 34.1027 10.7656C36.689 12.613 38.142 15.1186 38.142 17.7312H35.8759C35.8759 15.5479 34.6616 13.454 32.5003 11.9102C30.339 10.3664 27.4076 9.4991 24.351 9.4991C21.2944 9.4991 18.363 10.3664 16.2016 11.9102C14.0451 13.4506 12.8315 15.5386 12.8261 17.7167L13.5214 17.7247C13.6143 15.7917 14.7696 13.9513 16.7612 12.5793C18.8395 11.1476 21.6583 10.3432 24.5974 10.3432C27.5366 10.3432 30.3553 11.1476 32.4336 12.5793C34.5119 14.011 35.6795 15.9528 35.6795 17.9776H35.4287L35.4328 17.9776H52.3059C52.2219 17.1357 51.7086 16.3353 50.8453 15.7116C49.8982 15.0273 48.5994 14.6059 47.2074 14.5312C45.8153 14.4565 44.4321 14.734 43.3331 15.3085C42.2341 15.8829 41.4998 16.7122 41.2764 17.6312L41.0967 17.6118C41.0971 17.6516 41.0973 17.6914 41.0973 17.7313H38.3456C38.3456 14.7838 36.8712 11.9571 34.2467 9.87299C31.6222 7.78884 28.0626 6.61798 24.3511 6.61798C20.6395 6.61798 17.0799 7.78884 14.4554 9.87299C11.8438 11.947 10.3709 14.7563 10.3567 17.6882ZM53.4006 17.9776H53.9148C53.8235 16.7573 53.0561 15.5993 51.754 14.7312C50.3645 13.8049 48.4801 13.2845 46.5151 13.2845C44.5502 13.2845 42.6657 13.8049 41.2763 14.7312C41.0413 14.8878 40.8654 14.9611 40.7354 14.981C40.8296 15.3351 40.9059 15.6929 40.9636 16.0536C41.3892 15.5482 41.9629 15.099 42.659 14.7352C43.9741 14.0478 45.6293 13.7158 47.295 13.8052C48.9608 13.8945 50.515 14.3988 51.6483 15.2176C52.6978 15.9759 53.3151 16.9525 53.4006 17.9776ZM33.8584 17.9594C33.8515 16.2739 32.8766 14.6585 31.146 13.4663C29.4092 12.2699 27.0536 11.5977 24.5974 11.5977C22.1412 11.5977 19.7856 12.2699 18.0488 13.4663C16.3915 14.608 15.4272 16.1379 15.3424 17.7457L15.5144 17.7477C15.6832 16.3544 16.5889 15.0401 18.0824 14.0445C19.745 12.936 22 12.3133 24.3513 12.3133C26.7027 12.3133 28.9577 12.936 30.6203 14.0445C32.1866 15.0887 33.1063 16.4833 33.2076 17.9519L33.8584 17.9594ZM31.7475 17.9351C31.6418 16.7304 30.8772 15.5892 29.5902 14.7312C28.2008 13.8049 26.3163 13.2845 24.3513 13.2845C22.3864 13.2845 20.5019 13.8049 19.1125 14.7312C17.8863 15.5486 17.1344 16.6231 16.9745 17.7646L17.9821 17.7762C18.136 16.7649 18.8079 15.8144 19.8957 15.0892C21.1427 14.2579 22.8339 13.7909 24.5974 13.7909C26.3609 13.7909 28.0522 14.2579 29.2991 15.0892C30.4416 15.8508 31.1253 16.861 31.232 17.9291L31.7475 17.9351ZM30.1349 17.9165C30.0264 17.0465 29.4594 16.2262 28.5266 15.6043C27.4845 14.9096 26.0711 14.5193 24.5974 14.5193C23.1237 14.5193 21.7103 14.9096 20.6683 15.6043C19.7811 16.1957 19.2249 16.9665 19.0792 17.7889L30.1349 17.9165ZM42.3496 4.64069C42.4377 4.72253 42.515 4.80585 42.5814 4.89033C42.3483 4.94627 42.1177 5.00704 41.8895 5.0725C41.5834 4.79228 41.182 4.53593 40.6998 4.31336C40.1052 4.03894 39.3994 3.82126 38.6225 3.67275C37.8457 3.52423 37.0131 3.44779 36.1722 3.44779C35.3314 3.44779 34.4987 3.52423 33.7219 3.67275C32.945 3.82126 32.2392 4.03894 31.6446 4.31336C31.05 4.58778 30.5784 4.91356 30.2566 5.2721L30.246 5.28395C29.8983 5.18008 29.546 5.08537 29.19 5.00001C29.2714 4.87783 29.3754 4.75775 29.5014 4.64069C29.8509 4.31623 30.3631 4.02141 31.0087 3.77307C31.6544 3.52473 32.421 3.32774 33.2646 3.19334C34.1082 3.05894 35.0124 2.98977 35.9255 2.98977C36.8386 2.98977 37.7428 3.05894 38.5864 3.19334C39.43 3.32774 40.1966 3.52473 40.8423 3.77307C41.4879 4.02141 42.0001 4.31623 42.3496 4.64069ZM39.45 4.89017C39.869 5.08355 40.2037 5.31215 40.4361 5.56357C39.9376 5.75793 39.4509 5.9749 38.9751 6.21255C38.8463 6.06183 38.7 5.92062 38.5378 5.79089C38.1948 5.51647 37.7876 5.29879 37.3394 5.15028C36.8912 5.00177 36.4109 4.92533 35.9258 4.92533C35.4406 4.92533 34.9603 5.00177 34.5121 5.15028C34.0639 5.29879 33.6567 5.51647 33.3137 5.79089C33.133 5.93546 32.9719 6.09428 32.8329 6.26464C32.4722 6.09639 32.1039 5.93908 31.7291 5.79299C31.7746 5.72232 31.8281 5.65265 31.8895 5.58427C32.1225 5.3247 32.4639 5.08884 32.8944 4.89017C33.3248 4.6915 33.8358 4.53391 34.3983 4.42639C34.9607 4.31887 35.5635 4.26353 36.1722 4.26353C36.781 4.26353 37.3837 4.31887 37.9462 4.42639C38.5086 4.53391 39.0196 4.6915 39.45 4.89017ZM37.8168 6.3677C37.9312 6.45922 38.0347 6.55862 38.1262 6.66459C37.3621 7.09691 36.6263 7.5824 35.9149 8.1124C35.2235 7.58826 34.4814 7.1154 33.698 6.69689C33.796 6.57877 33.9088 6.46845 34.0347 6.3677C34.283 6.16903 34.5779 6.01144 34.9023 5.90392C35.2268 5.7964 35.5746 5.74106 35.9258 5.74106C36.277 5.74106 36.6247 5.7964 36.9492 5.90392C37.2737 6.01144 37.5685 6.16903 37.8168 6.3677ZM26.8379 4.46863C26.9384 4.15732 27.1415 3.85202 27.4431 3.56079C27.891 3.12817 28.5477 2.73508 29.3755 2.40396C30.2033 2.07284 31.186 1.81019 32.2676 1.63099C33.3491 1.45179 34.5083 1.35956 35.679 1.35956C36.8497 1.35956 38.0089 1.45179 39.0905 1.63099C40.172 1.81019 41.1548 2.07284 41.9825 2.40396C42.8103 2.73508 43.467 3.12817 43.915 3.56079C43.9583 3.60267 43.9997 3.64483 44.0389 3.68726C43.6613 3.45799 43.2182 3.24488 42.7169 3.05205C41.825 2.70903 40.7662 2.43693 39.601 2.25129C38.4357 2.06565 37.1868 1.9701 35.9255 1.9701C34.6642 1.9701 33.4153 2.06565 32.25 2.25129C31.0848 2.43693 30.026 2.70903 29.1341 3.05206C28.2423 3.39508 27.5348 3.8023 27.0521 4.25048C26.9747 4.32241 26.9032 4.39516 26.8379 4.46863Z" fill="#606C5D"/>
</svg>
